<?xml version="1.0" standalone="no"?>
<!DOCTYPE svg PUBLIC "-//W3C//DTD SVG 20010904//EN"
 "http://www.w3.org/TR/2001/REC-SVG-20010904/DTD/svg10.dtd">
<svg version="1.0" xmlns="http://www.w3.org/2000/svg"
 width="225.000000pt" height="225.000000pt" viewBox="0 0 225.000000 225.000000"
 preserveAspectRatio="xMidYMid meet">

<g transform="translate(0.000000,225.000000) scale(0.100000,-0.100000)"
fill="#000000" stroke="none">
<path d="M990 2239 c-432 -50 -822 -386 -944 -813 -189 -662 280 -1344 974
-1417 523 -55 1036 298 1184 815 187 655 -276 1339 -959 1416 -102 11 -149 11
-255 -1z m265 -119 c336 -48 606 -234 753 -520 87 -167 116 -287 116 -475 0
-188 -29 -309 -116 -475 -54 -105 -88 -152 -95 -133 -14 38 -108 167 -164 222
-60 61 -197 159 -250 180 -13 5 -41 17 -62 26 l-39 16 65 60 c105 96 161 198
177 324 33 269 -171 533 -444 575 -323 50 -626 -249 -586 -575 16 -126 72
-228 177 -325 63 -58 65 -60 42 -69 -184 -72 -340 -196 -440 -349 -26 -39 -49
-78 -52 -85 -6 -16 -25 8 -76 94 -215 367 -177 833 94 1161 211 257 569 395
900 348z m-55 -320 c126 -24 228 -99 280 -204 126 -255 -16 -543 -290 -585
-130 -21 -263 21 -353 111 -186 186 -134 524 97 638 94 46 172 58 266 40z
m162 -953 c107 -34 198 -88 280 -165 70 -65 150 -175 178 -242 14 -33 14 -34
-31 -72 -127 -111 -292 -191 -474 -229 -33 -8 -118 -13 -190 -13 -71 0 -157 5
-190 13 -182 38 -347 118 -474 229 -45 38 -45 39 -31 72 49 118 195 278 315
345 181 101 418 125 617 62z"/>
</g>
</svg>
